<svg width="20" height="20" viewBox="0 0 20 20" fill="none" xmlns="http://www.w3.org/2000/svg">
<path d="M10.0008 0.625C7.45478 0.625 7.13519 0.636156 6.13525 0.681625C5.13719 0.727375 4.45591 0.885344 3.85984 1.11719C3.24316 1.35662 2.72013 1.67697 2.19906 2.19822C1.67753 2.71937 1.35719 3.24241 1.117 3.85881C0.8845 4.45506 0.726344 5.13662 0.681437 6.13422C0.636719 7.13425 0.625 7.45394 0.625 10.0001C0.625 12.5463 0.63625 12.8648 0.681625 13.8647C0.727563 14.8628 0.885531 15.5441 1.11719 16.1402C1.35681 16.7568 1.67716 17.2799 2.19841 17.8009C2.71938 18.3225 3.24241 18.6436 3.85862 18.883C4.45516 19.1148 5.13653 19.2728 6.13441 19.3186C7.13444 19.364 7.45375 19.3752 9.99972 19.3752C12.5461 19.3752 12.8646 19.364 13.8646 19.3186C14.8626 19.2728 15.5447 19.1148 16.1412 18.883C16.7576 18.6436 17.2799 18.3225 17.8007 17.8009C18.3223 17.2799 18.6425 16.7568 18.8828 16.1404C19.1133 15.5441 19.2715 14.8626 19.3184 13.8649C19.3633 12.865 19.375 12.5463 19.375 10.0001C19.375 7.45394 19.3633 7.13444 19.3184 6.13441C19.2715 5.13634 19.1133 4.45516 18.8828 3.85909C18.6425 3.24241 18.3223 2.71937 17.8007 2.19822C17.2793 1.67678 16.7578 1.35644 16.1406 1.11728C15.543 0.885344 14.8613 0.727281 13.8632 0.681625C12.8632 0.636156 12.5448 0.625 9.99794 0.625H10.0008ZM9.15981 2.31447C9.40947 2.31409 9.688 2.31447 10.0008 2.31447C12.5041 2.31447 12.8007 2.32347 13.7892 2.36838C14.7032 2.41019 15.1994 2.56291 15.5298 2.69125C15.9674 2.86112 16.2793 3.06428 16.6072 3.3925C16.9353 3.72062 17.1384 4.03309 17.3088 4.47062C17.4371 4.80062 17.59 5.29675 17.6316 6.21081C17.6765 7.19913 17.6863 7.49594 17.6863 9.99794C17.6863 12.4999 17.6765 12.7968 17.6316 13.7851C17.5898 14.6991 17.4371 15.1952 17.3088 15.5253C17.1389 15.9629 16.9353 16.2744 16.6072 16.6023C16.2791 16.9305 15.9676 17.1335 15.5298 17.3035C15.1997 17.4324 14.7032 17.5848 13.7892 17.6266C12.8009 17.6715 12.5041 17.6812 10.0008 17.6812C7.49753 17.6812 7.20081 17.6715 6.21259 17.6266C5.29853 17.5844 4.80241 17.4317 4.47166 17.3033C4.03422 17.1333 3.72166 16.9303 3.39353 16.6022C3.06541 16.274 2.86234 15.9623 2.692 15.5246C2.56366 15.1945 2.41075 14.6984 2.36913 13.7843C2.32422 12.796 2.31522 12.4992 2.31522 9.99559C2.31522 7.49209 2.32422 7.19678 2.36913 6.20847C2.41094 5.29441 2.56366 4.79828 2.692 4.46781C2.86197 4.03028 3.06541 3.71781 3.39363 3.38969C3.72175 3.06156 4.03422 2.85841 4.47175 2.68816C4.80222 2.55925 5.29853 2.40691 6.21259 2.36491C7.07744 2.32581 7.41259 2.31409 9.15981 2.31212V2.31447ZM15.0052 3.87109C14.3841 3.87109 13.8802 4.37453 13.8802 4.99572C13.8802 5.61681 14.3841 6.12072 15.0052 6.12072C15.6263 6.12072 16.1302 5.61681 16.1302 4.99572C16.1302 4.37463 15.6263 3.87072 15.0052 3.87072V3.87109ZM10.0008 5.18556C7.34209 5.18556 5.18641 7.34125 5.18641 10.0001C5.18641 12.6589 7.34209 14.8136 10.0008 14.8136C12.6597 14.8136 14.8146 12.6589 14.8146 10.0001C14.8146 7.34134 12.6595 5.18556 10.0007 5.18556H10.0008ZM10.0008 6.87503C11.7267 6.87503 13.1259 8.27406 13.1259 10.0001C13.1259 11.7259 11.7267 13.1252 10.0008 13.1252C8.27491 13.1252 6.87588 11.7259 6.87588 10.0001C6.87588 8.27406 8.27491 6.87503 10.0008 6.87503Z" fill="white"/>
</svg>
